<?xml version="1.0" encoding="utf-8"?>
<!-- Generator: Adobe Illustrator 19.2.1, SVG Export Plug-In . SVG Version: 6.00 Build 0)  -->
<!DOCTYPE svg PUBLIC "-//W3C//DTD SVG 1.1//EN" "http://www.w3.org/Graphics/SVG/1.1/DTD/svg11.dtd">
<svg version="1.1" id="logo" xmlns="http://www.w3.org/2000/svg" xmlns:xlink="http://www.w3.org/1999/xlink" x="0px" y="0px"
	 viewBox="0 0 210.5 210.5" enable-background="new 0 0 210.5 210.5" xml:space="preserve">
<linearGradient id="hex_1_" gradientUnits="userSpaceOnUse" x1="56.6139" y1="56.6139" x2="153.8861" y2="153.8861">
	<stop  offset="0" style="stop-color:#ED1556"/>
	<stop  offset="0.5941" style="stop-color:#522E91"/>
	<stop  offset="1" style="stop-color:#0095DA"/>
</linearGradient>
<path id="hex" fill="url(#hex_1_)" d="M162.4,144.8l-51.5,29.7c-3.5,2-7.8,2-11.3,0l-51.5-29.7c-3.5-2-5.7-5.8-5.7-9.8V75.5
	c0-4,2.2-7.8,5.7-9.8L99.6,36c3.5-2,7.8-2,11.3,0l51.5,29.7c3.5,2,5.7,5.8,5.7,9.8V135C168.1,139,165.9,142.8,162.4,144.8z"/>
<g id="wave">
	<linearGradient id="SVGID_1_" gradientUnits="userSpaceOnUse" x1="30.6582" y1="96.9167" x2="207.7832" y2="96.9167">
		<stop  offset="0" style="stop-color:#ED1941"/>
		<stop  offset="0.2423" style="stop-color:#F04E3E"/>
		<stop  offset="0.5927" style="stop-color:#FFC20E"/>
		<stop  offset="1" style="stop-color:#00B6F1"/>
	</linearGradient>
	
		<path fill="none" stroke="url(#SVGID_1_)" stroke-width="0.5" stroke-linecap="round" stroke-linejoin="round" stroke-miterlimit="10" d="
		M30.9,103.5c0,0,6.7,1.1,16.5-3.4s12.9-19.7,27-16.5c16.1,3.6,12.1,16.8,24.4,16.5c20.4-0.4,21.4-36.8,32.3-39.8
		c28-7.7-4.4,91.8,35.6,70.5c16.9-9,33.8-40.1,40.9-39"/>
	<linearGradient id="SVGID_2_" gradientUnits="userSpaceOnUse" x1="29.3276" y1="97.1049" x2="207.0639" y2="97.1049">
		<stop  offset="0" style="stop-color:#ED1941"/>
		<stop  offset="0.2423" style="stop-color:#F04E3E"/>
		<stop  offset="0.5927" style="stop-color:#FFC20E"/>
		<stop  offset="1" style="stop-color:#00B6F1"/>
	</linearGradient>
	
		<path fill="none" stroke="url(#SVGID_2_)" stroke-width="0.5" stroke-linecap="round" stroke-linejoin="round" stroke-miterlimit="10" d="
		M29.6,105.2c0,0,6.8,1.1,16.5-3.5s12.8-19.4,26.9-16.3c16.1,3.5,12.1,17.2,24.4,16.8c20.4-0.6,21.7-37.9,32.4-41.1
		c27.5-8.2-4.4,91.2,35.5,69.6c16.8-9.1,34.4-38,41.5-37"/>
	<linearGradient id="SVGID_3_" gradientUnits="userSpaceOnUse" x1="27.9971" y1="97.286" x2="206.3447" y2="97.286">
		<stop  offset="0" style="stop-color:#ED1941"/>
		<stop  offset="0.2423" style="stop-color:#F04E3E"/>
		<stop  offset="0.5927" style="stop-color:#FFC20E"/>
		<stop  offset="1" style="stop-color:#00B6F1"/>
	</linearGradient>
	
		<path fill="none" stroke="url(#SVGID_3_)" stroke-width="0.5" stroke-linecap="round" stroke-linejoin="round" stroke-miterlimit="10" d="
		M28.2,106.8c0,0,6.8,1,16.4-3.6c9.7-4.6,12.7-19.1,26.8-16.1c16.1,3.4,12.2,17.5,24.5,17.1c20.4-0.7,22-39.1,32.6-42.5
		c26.9-8.7-4.3,90.6,35.3,68.6c16.7-9.3,35.1-36,42.2-35"/>
	<linearGradient id="SVGID_4_" gradientUnits="userSpaceOnUse" x1="26.6665" y1="97.4695" x2="205.6255" y2="97.4695">
		<stop  offset="0" style="stop-color:#ED1941"/>
		<stop  offset="0.2423" style="stop-color:#F04E3E"/>
		<stop  offset="0.5927" style="stop-color:#FFC20E"/>
		<stop  offset="1" style="stop-color:#00B6F1"/>
	</linearGradient>
	
		<path fill="none" stroke="url(#SVGID_4_)" stroke-width="0.5" stroke-linecap="round" stroke-linejoin="round" stroke-miterlimit="10" d="
		M26.9,108.5c0,0,6.8,1,16.4-3.8C52.9,100,55.9,86,70,88.8c16.2,3.3,12.3,17.9,24.5,17.4c20.3-0.9,22.3-40.3,32.8-43.9
		c26.4-9.2-4.3,89.9,35.2,67.7c16.6-9.4,35.7-33.9,42.9-32.9"/>
	<linearGradient id="SVGID_5_" gradientUnits="userSpaceOnUse" x1="25.336" y1="97.6523" x2="204.9063" y2="97.6523">
		<stop  offset="0" style="stop-color:#ED1941"/>
		<stop  offset="0.2423" style="stop-color:#F04E3E"/>
		<stop  offset="0.5927" style="stop-color:#FFC20E"/>
		<stop  offset="1" style="stop-color:#00B6F1"/>
	</linearGradient>
	
		<path fill="none" stroke="url(#SVGID_5_)" stroke-width="0.5" stroke-linecap="round" stroke-linejoin="round" stroke-miterlimit="10" d="
		M25.6,110.2c0,0,6.8,0.9,16.4-3.9s12.5-18.5,26.6-15.7c16.2,3.1,12.3,18.3,24.6,17.7c20.3-1.1,22.6-41.5,33-45.3
		c25.9-9.7-4.3,89.3,35,66.8c16.6-9.5,36.4-31.8,43.6-30.9"/>
	<linearGradient id="SVGID_6_" gradientUnits="userSpaceOnUse" x1="24.0055" y1="97.8345" x2="204.1871" y2="97.8345">
		<stop  offset="0" style="stop-color:#ED1941"/>
		<stop  offset="0.2423" style="stop-color:#F04E3E"/>
		<stop  offset="0.5927" style="stop-color:#FFC20E"/>
		<stop  offset="1" style="stop-color:#00B6F1"/>
	</linearGradient>
	
		<path fill="none" stroke="url(#SVGID_6_)" stroke-width="0.5" stroke-linecap="round" stroke-linejoin="round" stroke-miterlimit="10" d="
		M24.3,111.9c0,0,6.8,0.9,16.3-4s12.3-18.2,26.5-15.5c16.2,3,12.4,18.7,24.6,18c20.3-1.2,22.9-42.6,33.2-46.7
		c25.4-10.2-4.2,88.7,34.8,65.8c16.5-9.6,37.1-29.7,44.2-28.9"/>
	<linearGradient id="SVGID_7_" gradientUnits="userSpaceOnUse" x1="22.6749" y1="98.016" x2="203.4679" y2="98.016">
		<stop  offset="0" style="stop-color:#ED1941"/>
		<stop  offset="0.2423" style="stop-color:#F04E3E"/>
		<stop  offset="0.5927" style="stop-color:#FFC20E"/>
		<stop  offset="1" style="stop-color:#00B6F1"/>
	</linearGradient>
	
		<path fill="none" stroke="url(#SVGID_7_)" stroke-width="0.5" stroke-linecap="round" stroke-linejoin="round" stroke-miterlimit="10" d="
		M22.9,113.5c0,0,6.8,0.8,16.3-4.1c9.5-4.9,12.2-17.9,26.4-15.4c16.2,2.9,12.4,19.1,24.7,18.3c20.3-1.4,23.2-43.8,33.3-48.1
		c24.9-10.7-4.2,88,34.7,64.9c16.4-9.8,37.7-27.7,44.9-26.9"/>
	<linearGradient id="SVGID_8_" gradientUnits="userSpaceOnUse" x1="21.3444" y1="98.197" x2="202.7487" y2="98.197">
		<stop  offset="0" style="stop-color:#ED1941"/>
		<stop  offset="0.2423" style="stop-color:#F04E3E"/>
		<stop  offset="0.5927" style="stop-color:#FFC20E"/>
		<stop  offset="1" style="stop-color:#00B6F1"/>
	</linearGradient>
	
		<path fill="none" stroke="url(#SVGID_8_)" stroke-width="0.5" stroke-linecap="round" stroke-linejoin="round" stroke-miterlimit="10" d="
		M21.6,115.2c0,0,6.8,0.8,16.2-4.3S50,93.4,64.1,95.8c16.2,2.7,12.5,19.5,24.7,18.6c20.3-1.5,23.6-45,33.5-49.5
		c24.4-11.1-4.1,87.4,34.5,64c16.3-9.9,38.4-25.6,45.6-24.8"/>
	<linearGradient id="SVGID_9_" gradientUnits="userSpaceOnUse" x1="20.0138" y1="98.3775" x2="202.0295" y2="98.3775">
		<stop  offset="0" style="stop-color:#ED1941"/>
		<stop  offset="0.2423" style="stop-color:#F04E3E"/>
		<stop  offset="0.5927" style="stop-color:#FFC20E"/>
		<stop  offset="1" style="stop-color:#00B6F1"/>
	</linearGradient>
	
		<path fill="none" stroke="url(#SVGID_9_)" stroke-width="0.5" stroke-linecap="round" stroke-linejoin="round" stroke-miterlimit="10" d="
		M20.3,116.9c0,0,6.8,0.7,16.2-4.4s12-17.3,26.2-15c16.2,2.6,12.6,19.9,24.8,18.9c20.3-1.7,23.9-46.1,33.7-50.9
		c23.9-11.6-4.1,86.8,34.4,63c16.2-10,39.1-23.5,46.2-22.8"/>
	<linearGradient id="SVGID_10_" gradientUnits="userSpaceOnUse" x1="18.6833" y1="98.5576" x2="201.3103" y2="98.5576">
		<stop  offset="0" style="stop-color:#ED1941"/>
		<stop  offset="0.2423" style="stop-color:#F04E3E"/>
		<stop  offset="0.5927" style="stop-color:#FFC20E"/>
		<stop  offset="1" style="stop-color:#00B6F1"/>
	</linearGradient>
	
		<path fill="none" stroke="url(#SVGID_10_)" stroke-width="0.5" stroke-linecap="round" stroke-linejoin="round" stroke-miterlimit="10" d="
		M18.9,118.5c0,0,6.8,0.6,16.2-4.5s11.9-17,26.1-14.8c16.3,2.5,12.6,20.3,24.8,19.2c20.3-1.9,24.2-47.3,33.9-52.3
		c23.4-12.1-4.1,86.1,34.2,62.1c16.1-10.1,39.7-21.4,46.9-20.8"/>
	<linearGradient id="SVGID_11_" gradientUnits="userSpaceOnUse" x1="17.3528" y1="98.7373" x2="200.5911" y2="98.7373">
		<stop  offset="0" style="stop-color:#ED1941"/>
		<stop  offset="0.2423" style="stop-color:#F04E3E"/>
		<stop  offset="0.5927" style="stop-color:#FFC20E"/>
		<stop  offset="1" style="stop-color:#00B6F1"/>
	</linearGradient>
	
		<path fill="none" stroke="url(#SVGID_11_)" stroke-width="0.5" stroke-linecap="round" stroke-linejoin="round" stroke-miterlimit="10" d="
		M17.6,120.2c0,0,6.8,0.6,16.1-4.6s11.8-16.7,26-14.6c16.3,2.4,12.7,20.7,24.9,19.5c20.2-2,24.5-48.5,34.1-53.7
		c22.9-12.5-4,85.5,34.1,61.2c16.1-10.3,40.4-19.3,47.6-18.8"/>
	<linearGradient id="SVGID_12_" gradientUnits="userSpaceOnUse" x1="16.0222" y1="98.9165" x2="199.8719" y2="98.9165">
		<stop  offset="0" style="stop-color:#ED1941"/>
		<stop  offset="0.2423" style="stop-color:#F04E3E"/>
		<stop  offset="0.5927" style="stop-color:#FFC20E"/>
		<stop  offset="1" style="stop-color:#00B6F1"/>
	</linearGradient>
	
		<path fill="none" stroke="url(#SVGID_12_)" stroke-width="0.5" stroke-linecap="round" stroke-linejoin="round" stroke-miterlimit="10" d="
		M16.3,121.9c0,0,6.8,0.5,16.1-4.8c9.3-5.3,11.7-16.3,25.9-14.4c16.3,2.2,12.7,21.1,24.9,19.8c20.2-2.2,24.8-49.6,34.3-55.1
		c22.4-13-4,84.8,33.9,60.2c16-10.4,41.1-17.3,48.2-16.8"/>
	<linearGradient id="SVGID_13_" gradientUnits="userSpaceOnUse" x1="14.6917" y1="99.0955" x2="199.1527" y2="99.0955">
		<stop  offset="0" style="stop-color:#ED1941"/>
		<stop  offset="0.2423" style="stop-color:#F04E3E"/>
		<stop  offset="0.5927" style="stop-color:#FFC20E"/>
		<stop  offset="1" style="stop-color:#00B6F1"/>
	</linearGradient>
	
		<path fill="none" stroke="url(#SVGID_13_)" stroke-width="0.5" stroke-linecap="round" stroke-linejoin="round" stroke-miterlimit="10" d="
		M14.9,123.5c0,0,6.8,0.5,16.1-4.9c9.3-5.4,11.5-16,25.8-14.2c16.3,2.1,12.8,21.5,25,20.1c20.2-2.3,25.1-50.8,34.4-56.5
		c21.9-13.4-4,84.2,33.8,59.3c15.9-10.5,41.7-15.2,48.9-14.7"/>
	<linearGradient id="SVGID_14_" gradientUnits="userSpaceOnUse" x1="13.3612" y1="99.2741" x2="198.4335" y2="99.2741">
		<stop  offset="0" style="stop-color:#ED1941"/>
		<stop  offset="0.2423" style="stop-color:#F04E3E"/>
		<stop  offset="0.5927" style="stop-color:#FFC20E"/>
		<stop  offset="1" style="stop-color:#00B6F1"/>
	</linearGradient>
	
		<path fill="none" stroke="url(#SVGID_14_)" stroke-width="0.5" stroke-linecap="round" stroke-linejoin="round" stroke-miterlimit="10" d="
		M13.6,125.2c0,0,6.8,0.4,16-5s11.4-15.7,25.7-14c16.3,2,12.9,21.9,25,20.4c20.2-2.5,25.4-51.9,34.6-57.9
		c21.4-13.9-3.9,83.6,33.6,58.4c15.8-10.6,42.4-13.1,49.6-12.7"/>
	<linearGradient id="SVGID_15_" gradientUnits="userSpaceOnUse" x1="12.0306" y1="99.4524" x2="197.7143" y2="99.4524">
		<stop  offset="0" style="stop-color:#ED1941"/>
		<stop  offset="0.2423" style="stop-color:#F04E3E"/>
		<stop  offset="0.5927" style="stop-color:#FFC20E"/>
		<stop  offset="1" style="stop-color:#00B6F1"/>
	</linearGradient>
	
		<path fill="none" stroke="url(#SVGID_15_)" stroke-width="0.5" stroke-linecap="round" stroke-linejoin="round" stroke-miterlimit="10" d="
		M12.3,126.9c0,0,6.8,0.4,16-5.1c9.2-5.5,11.3-15.4,25.6-13.8c16.3,1.9,12.9,22.3,25.1,20.7c20.2-2.6,25.8-53.1,34.8-59.3
		c21-14.3-3.9,82.9,33.4,57.4c15.7-10.8,43.1-11,50.2-10.7"/>
	<linearGradient id="SVGID_16_" gradientUnits="userSpaceOnUse" x1="10.7001" y1="99.6304" x2="196.9951" y2="99.6304">
		<stop  offset="0" style="stop-color:#ED1941"/>
		<stop  offset="0.2423" style="stop-color:#F04E3E"/>
		<stop  offset="0.5927" style="stop-color:#FFC20E"/>
		<stop  offset="1" style="stop-color:#00B6F1"/>
	</linearGradient>
	
		<path fill="none" stroke="url(#SVGID_16_)" stroke-width="0.5" stroke-linecap="round" stroke-linejoin="round" stroke-miterlimit="10" d="
		M11,128.6c0,0,6.8,0.3,15.9-5.3c9.1-5.6,11.2-15.1,25.5-13.6c16.4,1.7,13,22.7,25.1,21c20.2-2.8,26.1-54.3,35-60.7
		c20.5-14.8-3.9,82.3,33.3,56.5c15.7-10.9,43.7-9,50.9-8.7"/>
	<linearGradient id="SVGID_17_" gradientUnits="userSpaceOnUse" x1="9.3695" y1="100.8731" x2="196.2759" y2="100.8731">
		<stop  offset="0" style="stop-color:#ED1941"/>
		<stop  offset="0.2423" style="stop-color:#F04E3E"/>
		<stop  offset="0.5927" style="stop-color:#FFC20E"/>
		<stop  offset="1" style="stop-color:#00B6F1"/>
	</linearGradient>
	
		<path fill="none" stroke="url(#SVGID_17_)" stroke-width="0.5" stroke-linecap="round" stroke-linejoin="round" stroke-miterlimit="10" d="
		M9.6,130.2c0,0,6.8,0.3,15.9-5.4c9.1-5.7,11.1-14.8,25.4-13.4c16.4,1.6,13,23.1,25.2,21.3c20.1-3,26.4-55.4,35.2-62.1
		c20-15.2-3.8,81.7,33.1,55.6c15.6-11,44.4-6.9,51.6-6.6"/>
	<linearGradient id="SVGID_18_" gradientUnits="userSpaceOnUse" x1="8.039" y1="102.1673" x2="195.5567" y2="102.1673">
		<stop  offset="0" style="stop-color:#ED1941"/>
		<stop  offset="0.2423" style="stop-color:#F04E3E"/>
		<stop  offset="0.5927" style="stop-color:#FFC20E"/>
		<stop  offset="1" style="stop-color:#00B6F1"/>
	</linearGradient>
	
		<path fill="none" stroke="url(#SVGID_18_)" stroke-width="0.5" stroke-linecap="round" stroke-linejoin="round" stroke-miterlimit="10" d="
		M8.3,131.9c0,0,6.8,0.2,15.9-5.5c9.1-5.7,11-14.5,25.3-13.2c16.4,1.5,13.1,23.5,25.2,21.6c20.1-3.1,26.7-56.6,35.4-63.5
		c19.5-15.7-3.8,81,33,54.6c15.5-11.1,45.1-4.8,52.2-4.6"/>
	<linearGradient id="SVGID_19_" gradientUnits="userSpaceOnUse" x1="6.7085" y1="103.4606" x2="194.8375" y2="103.4606">
		<stop  offset="0" style="stop-color:#ED1941"/>
		<stop  offset="0.2423" style="stop-color:#F04E3E"/>
		<stop  offset="0.5927" style="stop-color:#FFC20E"/>
		<stop  offset="1" style="stop-color:#00B6F1"/>
	</linearGradient>
	
		<path fill="none" stroke="url(#SVGID_19_)" stroke-width="0.5" stroke-linecap="round" stroke-linejoin="round" stroke-miterlimit="10" d="
		M7,133.6c0,0,6.8,0.2,15.8-5.6c9-5.8,10.9-14.2,25.2-13.1c16.4,1.3,13.2,23.9,25.3,21.9c20.1-3.3,27.1-57.7,35.5-64.9
		c19-16.1-3.7,80.4,32.8,53.7c15.4-11.3,45.7-2.7,52.9-2.6"/>
	<linearGradient id="SVGID_20_" gradientUnits="userSpaceOnUse" x1="5.3779" y1="104.7529" x2="194.1183" y2="104.7529">
		<stop  offset="0" style="stop-color:#ED1941"/>
		<stop  offset="0.2423" style="stop-color:#F04E3E"/>
		<stop  offset="0.5927" style="stop-color:#FFC20E"/>
		<stop  offset="1" style="stop-color:#00B6F1"/>
	</linearGradient>
	
		<path fill="none" stroke="url(#SVGID_20_)" stroke-width="0.5" stroke-linecap="round" stroke-linejoin="round" stroke-miterlimit="10" d="
		M5.6,135.2c0,0,6.8,0.1,15.8-5.8s10.7-13.9,25.1-12.9c16.4,1.2,13.2,24.3,25.3,22.2c20.1-3.4,27.4-58.9,35.7-66.3
		c18.6-16.5-3.7,79.8,32.7,52.8c15.3-11.4,46.4-0.6,53.6-0.6"/>
	<linearGradient id="SVGID_21_" gradientUnits="userSpaceOnUse" x1="4.0474" y1="106.0478" x2="193.399" y2="106.0478">
		<stop  offset="0" style="stop-color:#ED1941"/>
		<stop  offset="0.2423" style="stop-color:#F04E3E"/>
		<stop  offset="0.5927" style="stop-color:#FFC20E"/>
		<stop  offset="1" style="stop-color:#00B6F1"/>
	</linearGradient>
	
		<path fill="none" stroke="url(#SVGID_21_)" stroke-width="0.5" stroke-linecap="round" stroke-linejoin="round" stroke-miterlimit="10" d="
		M4.3,136.9c0,0,6.8,0.1,15.8-5.9c8.9-6,10.6-13.6,25-12.7c16.5,1.1,13.3,24.6,25.4,22.5c20.1-3.6,27.7-60,35.9-67.7
		c18.1-16.9-3.7,79.1,32.5,51.8c15.3-11.5,47,1.4,54.3,1.4"/>
	<linearGradient id="SVGID_22_" gradientUnits="userSpaceOnUse" x1="2.7168" y1="107.3345" x2="192.6798" y2="107.3345">
		<stop  offset="0" style="stop-color:#ED1941"/>
		<stop  offset="0.2423" style="stop-color:#F04E3E"/>
		<stop  offset="0.5927" style="stop-color:#FFC20E"/>
		<stop  offset="1" style="stop-color:#00B6F1"/>
	</linearGradient>
	
		<path fill="none" stroke="url(#SVGID_22_)" stroke-width="0.5" stroke-linecap="round" stroke-linejoin="round" stroke-miterlimit="10" d="
		M3,138.6c0,0,6.8,0,15.7-6c8.9-6,10.5-13.3,24.9-12.5c16.5,1,13.3,25,25.4,22.8c20.1-3.8,28-61.2,36.1-69.1
		c17.7-17.4-3.6,78.5,32.4,50.9c15.2-11.6,47.7,3.5,54.9,3.5"/>
</g>
</svg>
