<?xml version="1.0" encoding="utf-8"?>
<!-- Generator: Adobe Illustrator 19.2.1, SVG Export Plug-In . SVG Version: 6.00 Build 0)  -->
<!DOCTYPE svg PUBLIC "-//W3C//DTD SVG 1.1//EN" "http://www.w3.org/Graphics/SVG/1.1/DTD/svg11.dtd">
<svg version="1.1" id="Layer_1" xmlns="http://www.w3.org/2000/svg" xmlns:xlink="http://www.w3.org/1999/xlink" x="0px" y="0px"
	 viewBox="0 0 300 250" enable-background="new 0 0 300 250" xml:space="preserve">
<g>
	<defs>
		<rect id="SVGID_1_" width="300" height="250"/>
	</defs>
	<clipPath id="SVGID_2_">
		<use xlink:href="#SVGID_1_"  overflow="visible"/>
	</clipPath>
	
		<rect x="-0.1" clip-path="url(#SVGID_2_)" fill="none" stroke="#989898" stroke-width="0.5" stroke-miterlimit="10" width="300" height="250"/>
	<rect clip-path="url(#SVGID_2_)" fill="#B7ABD4" width="300" height="250"/>
	
		<rect clip-path="url(#SVGID_2_)" fill="none" stroke="#989898" stroke-width="0.5" stroke-miterlimit="10" width="300" height="250"/>
	<path clip-path="url(#SVGID_2_)" fill="#9887C0" d="M93.8,272.1c2-2.9,1.3-7.3-1.4-9.5c-2.7-2.2-7.1-2-9.6,0.5
		c3.8-3.4,4-9.9,0.5-13.6c-3-3-8.1-3.4-11.7-1.3c1.6-1.9,2.1-4.6,1.2-6.9c-1.2-3-5-4.8-8.1-3.8c0.1-3.6-2.9-6.9-6.4-7.4
		c-3.5-0.4-7.2,2.1-8,5.5c0.3-3.3-4.2-5.9-6.9-4c-0.4-3-2.8-5.7-5.8-6.5c-2.3-0.6-4.9,0.1-6.8,1.6c2-2.5,2.9-6,2.2-9.1
		c-0.8-3.8-3.8-7.1-7.5-8.3c-2.2-0.7-4.7-0.6-6.5,0.8c-1.5,1.1-2.2,3.2-1.7,4.9c-1.4-2.1-4.2-3.1-6.7-2.4c-2.8,0.9-4.6,4.1-3.9,7
		c-1-3.4-6.3-4.3-8.5-1.5c0,0-0.1,0.1-0.1,0.1c0.3-0.2-4,4.2-7.2,10.5c-2.1-5.3-5.5-12.7-5-13.6c-0.3,0.1-0.5,0.1-0.8,0.2
		c-1.2-1.7-3.5-2.7-5.6-2.4c-2.1,0.3-4,1.8-4.7,3.9c-0.4-2.4-2.5-4.4-4.9-4.8c-2.4-0.4-5,0.8-6.2,2.9c-0.4-4.7-5.4-8.4-10-7.6
		c-4.6,0.8-8,6.1-6.8,10.6c-2.3-1.3-5.3-0.9-7.3,0.9c-1.9,1.8-2.5,4.8-1.4,7.2c-4.9-1.7-8.3,0.7-10,4.4c1-0.6-9.9,25.8-8.7,25.8
		c2.9,0,51.1-18.5,53.2-14.8c0.1-1.5,9.9-5.6,15.7-7.1c-5.2,17,3.8,41.3,98.3,41.3c0,0.4-0.1,0.2-0.3,1.2h14.8c0-1,0-0.4,0-0.6
		C101.2,272.9,96.7,270.1,93.8,272.1z"/>
	<path clip-path="url(#SVGID_2_)" fill="#7860AA" d="M348.6,242.7c-1.5-4.2-5.5-7.4-10-8c-0.5-4.9-5.3-8.9-10.2-8.5s-9,5.1-8.7,10
		c-1.7-2.1-4-3.8-6.6-4.2c-2.6-0.4-5.6,0.6-6.9,2.9c-0.3,0.5-0.5,1-0.6,1.5l-1.1-0.3c-1.6-1.8-4.4-2.3-6.5-1.2
		c-2.1,1.1-3.3,3.7-2.7,6c-1.9-1.4-4.6-1.5-6.7-0.3s-3.3,3.6-3,6c-2-1.8-5.2-2.2-7.5-0.9c-1.1,0.6-2,1.6-2.6,2.7
		c-0.4-0.1-0.8-0.2-1.2-0.3c0.2-3.1-1.3-6.4-3.8-8.2s-6-2.3-9-1.2c0.7-2.5-0.6-5.5-3-6.7c-2.4-1.1-5.6-0.3-7.1,1.9
		c1.9-2.8,0.7-7.3-2.5-8.7c-3.1-1.4-7.3,0.7-8,4.1c0-2.5-2-4.8-4.4-5.1c-1.1-0.2-2.2,0.1-3.2,0.7c1.3-2.9,0.9-6.6-1.3-8.9
		c-3.1-3.2-9.2-2.9-11.9,0.7c-2.4,3.1-1.8,8,1.1,10.7c-2.2-1-5.2-0.3-6.4,1.9c-0.5,1-0.6,2.1-0.4,3.2c-0.8-0.2-1.6-0.2-2.4,0
		c2.4-5.8-2.6-13.2-8.8-13.2c2-1.5,2.9-4.2,2.3-6.6c-0.6-2.4-2.8-4.3-5.3-4.6c1-2,0.7-4.7-0.8-6.4c-1.5-1.7-4.1-2.3-6.2-1.5
		c0.8-1,0.7-2.5-0.2-3.4c-0.8-0.8-2.1-0.8-3-0.3c-0.1,0.1-0.3,0.2-0.4,0.3c0.3-3.7-3.2-7.1-6.9-6.8c-2.1,0.2-4,1.6-5,3.5
		c-0.7,1.4-1,2.9-0.6,4.4c-2.5-0.8-5.5,1.3-5.6,3.9c-1.5-1.3-4.3-0.1-4.4,1.9c-2.1-3.7-7.1-5.4-11-3.7c-3.9,1.6-6.3,6.3-5.2,10.4
		c-1.3-4.7-6.3-8.2-11.2-7.6c-4.9,0.5-9.1,5-9.3,9.9c-0.9-2.8-3.7-4.8-6.7-4.8c-1.2,0-2.4,0.4-3.5,1c-1.5,0.9-2.7,2.2-3.2,3.9
		c-1.9-3.1-5.7-5-9.3-4.5c-3.6,0.5-6.8,3.4-7.7,6.9c-3.4-3.3-9.1-3.8-13-1.1c-2.2,1.6-3.6,4.1-4.1,6.7c-0.5-0.1-1.1-0.2-1.6,0
		c-2.1,0.6-3.4,2.9-3.2,5.1c0.1,0.8,0.3,1.5,0.6,2.2c-1.3-0.6-2.9-0.7-4.2,0c-2.7,1.5-3.3,5.4-2.1,8.2c0.5,1.2,1.3,2.3,2.2,3.3
		c-1.6-0.6-3.4-0.6-5,0.1c-4.4,2-4.6,5.9-2.8,9.3c-0.3,0.2-0.6,0.4-0.9,0.7c0.1-1.2-0.7-2.3-1.8-2.6c-1.1-0.4-2.4,0.1-3,1.1
		c-0.2-1.1-1.5-1.8-2.6-1.4c-1.1,0.3-1.8,1.4-1.9,2.5c-0.1,1.1,0.3,2.2,0.9,3.2c-0.8-1.1-2.7-1-3.4,0.1s-0.1,2.9,1.2,3.2l18.2-0.7
		c0.2,0.1,0.4,0.1,0.6,0.2c0.2,0,0.3,0.1,0.5,0.1h110.6H276h2.5l67.4,0.1C349.1,251.9,350.1,246.9,348.6,242.7z"/>
	<g clip-path="url(#SVGID_2_)">
		<path fill="#7860AA" d="M278.9,263.9l-3.9-0.3c0,4.4-2,29.9-2.7,34.3l3.9,0.3C276.2,293.8,278.2,268.3,278.9,263.9z"/>
		<path fill="#7860AA" d="M281.8,228.1l-3.9-0.3c0,4.4-2,29.3-2.7,34l3.9,0.3C279.1,257.3,281.1,232.4,281.8,228.1z"/>
		<path fill="#7860AA" d="M282.2,219.8c0.6-9.2,1.9-24.5,2.4-27.9l-3.9-0.3c0,4.4-2,29.3-2.7,34.3l3.9,0.3
			C281.9,225.2,282,222.7,282.2,219.8"/>
		<path fill="#7860AA" d="M287.5,155.4l-3.9-0.3c0,4.1-2,30.2-2.7,34.3l3.9,0.3C284.8,185.5,286.8,159.4,287.5,155.4z"/>
		<path fill="#7860AA" d="M290.3,119.8l-3.9-0.3c0,4.1-2,29.6-2.7,33.7l3.9,0.3C287.6,149.4,289.6,123.9,290.3,119.8z"/>
		<path fill="#7860AA" d="M272.6,258.1l-3.9,0c0.3,4.6,0.4,29.9,0,34.3l3.9,0C272.3,288,272.3,262.8,272.6,258.1z"/>
		<path fill="#7860AA" d="M272.6,221.9l-3.9,0c0.3,4.6,0.4,29.7,0,34.3l3.9,0C272.3,251.6,272.2,226.6,272.6,221.9z"/>
		<path fill="#7860AA" d="M272.4,213.7c-0.1-9.2-0.1-24.5,0.2-28l-3.9,0c0.3,4.6,0.4,29.7,0,34.3l3.9,0
			C272.5,219,272.4,216.7,272.4,213.7"/>
		<path fill="#7860AA" d="M272.5,149.1l-3.9,0c0.3,4.6,0.4,30.2,0,34.3l3.9,0C272.2,179.3,272.2,153.7,272.5,149.1z"/>
		<path fill="#7860AA" d="M272.5,112.9l-3.9,0c0.3,4.6,0.4,29.9,0,34.3l3.9,0C272.2,142.8,272.2,117.6,272.5,112.9z"/>
		<path fill="#7860AA" d="M285.1,259.4l-3.9-0.5c-0.2,4.6-3.1,29.7-4,34.1l3.9,0.5C281.3,289,284.2,264,285.1,259.4z"/>
		<path fill="#7860AA" d="M289.3,223.5l-3.9-0.5c-0.2,4.6-3.1,29.5-4,34.1l3.9,0.5C285.5,252.9,288.4,228,289.3,223.5z"/>
		<path fill="#7860AA" d="M290.1,215.3c0.9-9.1,2.8-24.3,3.4-27.8l-3.9-0.5c-0.2,4.6-3.1,29.5-4,34.1l3.9,0.5
			C289.6,220.5,289.8,218.2,290.1,215.3"/>
		<path fill="#7860AA" d="M297.8,151.1l-3.9-0.5c-0.2,4.6-3.2,30-4,34.1l3.9,0.5C293.9,181,296.9,155.7,297.8,151.1z"/>
		<path fill="#7860AA" d="M302,115.2l-3.9-0.5c-0.2,4.6-3.1,29.7-4,34.1l3.9,0.5C298.2,144.8,301.1,119.8,302,115.2z"/>
		<path fill="#7860AA" d="M300.2,263.7l-3.9-0.3c0,4.7-2,30.2-2.7,34.3l3.9,0.3C297.5,293.9,299.5,268.4,300.2,263.7z"/>
		<path fill="#7860AA" d="M303,227.8l-3.9-0.3c0,4.4-2,29.3-2.7,34.3l3.9,0.3C300.4,257.1,302.3,232.2,303,227.8z"/>
		<path fill="#7860AA" d="M303.5,219.6c0.6-9.2,1.9-24.8,2.4-27.9l-3.9-0.3c0,4.7-2,29.3-2.7,34.3l3.9,0.3
			C303.1,225,303.3,222.5,303.5,219.6"/>
		<path fill="#7860AA" d="M308.7,155.1l-3.9-0.3c0,4.7-2,29.9-2.7,34l3.9,0.3C306,185,308,159.8,308.7,155.1z"/>
		<path fill="#7860AA" d="M311.6,119.3l-3.9-0.3c0,4.4-2,29.9-2.7,34.3l3.9,0.3C308.9,149.1,310.9,123.7,311.6,119.3z"/>
		<path fill="#7860AA" d="M299,225.5l-3.9-0.2c0,4.7-1.6,29.8-2.2,34.3l3.9,0.3C296.8,255.3,298.4,230.1,299,225.5z"/>
		<path fill="#7860AA" d="M301.4,189.4l-3.9-0.2c0,4.7-1.6,29.7-2.2,34.3l3.9,0.3C299.1,219,300.7,194,301.4,189.4z"/>
		<path fill="#7860AA" d="M301.7,181.2c0.5-9.2,1.5-24.4,2-27.9l-3.9-0.2c0,4.7-1.6,29.7-2.2,34.3l3.9,0.3
			C301.5,186.5,301.6,184.1,301.7,181.2"/>
		<path fill="#7860AA" d="M306,116.7l-3.9-0.2c0,4.7-1.6,30.1-2.2,34.3l3.9,0.3C303.8,146.8,305.4,121.3,306,116.7z"/>
		<path fill="#7860AA" d="M308.4,80.6l-3.9-0.2c0,4.7-1.6,29.8-2.2,34.3l3.9,0.3C306.1,110.4,307.7,85.2,308.4,80.6z"/>
		<path fill="#7860AA" d="M313.9,218.6l-3.9-0.5c-0.2,4.6-3.1,29.7-4,34.1l3.9,0.5C310.1,248.2,313,223.2,313.9,218.6z"/>
		<path fill="#7860AA" d="M318.1,182.7l-3.9-0.5c-0.2,4.6-3.1,29.5-4,34.1l3.9,0.5C314.3,212.1,317.2,187.2,318.1,182.7z"/>
		<path fill="#7860AA" d="M318.9,174.5c0.9-9.1,2.8-24.3,3.4-27.8l-3.9-0.5c-0.2,4.6-3.1,29.5-4,34.1l3.9,0.5
			C318.4,179.7,318.6,177.4,318.9,174.5"/>
		<path fill="#7860AA" d="M326.6,110.3l-3.9-0.5c-0.2,4.6-3.2,30-4,34.1l3.9,0.5C322.7,140.2,325.7,114.9,326.6,110.3z"/>
		<path fill="#7860AA" d="M330.8,74.4l-3.9-0.5c-0.2,4.6-3.1,29.7-4,34.1l3.9,0.5C327,104,329.9,78.9,330.8,74.4z"/>
	</g>
</g>
</svg>
