<?xml version="1.0" encoding="utf-8"?>
<!-- Generator: Adobe Illustrator 19.2.1, SVG Export Plug-In . SVG Version: 6.00 Build 0)  -->
<!DOCTYPE svg PUBLIC "-//W3C//DTD SVG 1.1//EN" "http://www.w3.org/Graphics/SVG/1.1/DTD/svg11.dtd">
<svg version="1.1" id="Layer_1" xmlns="http://www.w3.org/2000/svg" xmlns:xlink="http://www.w3.org/1999/xlink" x="0px" y="0px"
	 viewBox="0 0 40.8 57.2" enable-background="new 0 0 40.8 57.2" xml:space="preserve">
<g>
	<path fill="#FFFFFF" d="M10.3,17.7c2.2,0,4-0.9,5.3-2.2c0.6-0.6,1.6-0.7,2.2,0c0.6,0.6,0.6,1.6,0,2.2c-1.9,2-4.5,3.2-7.4,3.2
		C4.6,20.8,0,16.2,0,10.5S4.6,0.1,10.3,0.1c2.9,0,5.5,1.2,7.4,3.2c0.6,0.6,0.6,1.6,0,2.2c-0.6,0.6-1.6,0.6-2.2,0
		c-1.3-1.3-3.1-2.2-5.3-2.2C6,3.2,3,6.5,3,10.5C3.1,14.4,6.1,17.7,10.3,17.7"/>
	<path fill="#FFFFFF" d="M30.5,17.7c4.2,0,7.2-3.3,7.2-7.4c0-4-3-7.4-7.2-7.4c-4.2,0-7.2,3.3-7.2,7.4C23.3,14.4,26.3,17.7,30.5,17.7
		 M30.5,0c5.7,0,10.3,4.7,10.3,10.4s-4.6,10.4-10.3,10.4c-5.7,0-10.3-4.7-10.3-10.4C20.2,4.7,24.9,0,30.5,0"/>
	<path fill="#FFFFFF" d="M10.3,41.7c4.2,0,7.2-3.3,7.2-7.4c0-4-3-7.4-7.2-7.4C6,27,3,30.3,3,34.3C3.1,38.3,6.1,41.7,10.3,41.7
		 M10.3,23.9c5.7,0,10.3,4.7,10.3,10.4s-4.6,10.4-10.3,10.4C4.6,44.7,0,40.1,0,34.3C0,28.6,4.6,23.9,10.3,23.9"/>
	<path fill="#FFFFFF" d="M26.2,44.4c-0.9,0-1.5-0.7-1.5-1.6V25.6c0-0.9,0.7-1.6,1.5-1.6c0.9,0,1.5,0.7,1.5,1.6v15.7h11.1
		c0.9,0,1.5,0.7,1.5,1.6s-0.7,1.6-1.5,1.6L26.2,44.4L26.2,44.4z"/>
	<path fill="#FFFFFF" d="M38.2,21.6c-0.4,0-0.7,0.1-1.1,0.3c-0.3,0.1-0.5,0.1-0.7-0.2c-0.2-0.4,0.1-0.7,0.3-0.7
		c0.4-0.3,0.9-0.3,1.5-0.3c1,0,1.8,0.7,1.8,1.8c0,2-2.6,1.8-2.6,3.5v0.4h2.4c0.3,0,0.5,0.2,0.5,0.5c0,0.3-0.2,0.5-0.5,0.5h-2.9
		c-0.3,0-0.5-0.2-0.5-0.5V26c0-2.2,2.7-2.2,2.7-3.5C39,22,38.8,21.6,38.2,21.6"/>
	<path fill="#FFFFFF" d="M2.8,49.9v2h2.4c0.3,0,0.7,0.3,0.7,0.7c0,0.3-0.3,0.7-0.7,0.7H2.8v2.6h3.1c0.3,0,0.7,0.3,0.7,0.7
		c0,0.3-0.3,0.7-0.7,0.7H2.1c-0.3,0-0.7-0.3-0.7-0.7v-7.2c0-0.3,0.3-0.7,0.7-0.7h3.8c0.3,0,0.7,0.3,0.7,0.7c0,0.3-0.3,0.7-0.7,0.7
		L2.8,49.9L2.8,49.9z"/>
	<path fill="#FFFFFF" d="M9.2,56.5c0,0.3-0.3,0.7-0.7,0.7c-0.3,0-0.7-0.3-0.7-0.7v-7.3c0-0.3,0.3-0.7,0.7-0.7h3.8
		c0.3,0,0.7,0.3,0.7,0.7c0,0.3-0.3,0.7-0.7,0.7H9.2v2.3h2.4c0.3,0,0.7,0.3,0.7,0.7c0,0.3-0.3,0.7-0.7,0.7H9.2V56.5z"/>
	<path fill="#FFFFFF" d="M15.4,56.5c0,0.3-0.3,0.7-0.7,0.7c-0.3,0-0.7-0.3-0.7-0.7v-7.3c0-0.3,0.3-0.7,0.7-0.7h3.8
		c0.3,0,0.7,0.3,0.7,0.7c0,0.3-0.3,0.7-0.7,0.7h-3.1v2.3h2.4c0.3,0,0.7,0.3,0.7,0.7c0,0.3-0.3,0.7-0.7,0.7h-2.4V56.5z"/>
	<path fill="#FFFFFF" d="M21.5,49.9v2h2.4c0.3,0,0.7,0.3,0.7,0.7c0,0.3-0.3,0.7-0.7,0.7h-2.4v2.6h3.1c0.3,0,0.7,0.3,0.7,0.7
		c0,0.3-0.3,0.7-0.7,0.7h-3.8c-0.3,0-0.7-0.3-0.7-0.7v-7.2c0-0.3,0.3-0.7,0.7-0.7h3.8c0.3,0,0.7,0.3,0.7,0.7c0,0.3-0.3,0.7-0.7,0.7
		L21.5,49.9L21.5,49.9z"/>
	<path fill="#FFFFFF" d="M30.9,55.9c0.9,0,1.7-0.3,2.2-0.9c0.3-0.3,0.7-0.3,0.9,0s0.3,0.7,0,0.9c-0.8,0.8-2,1.3-3.2,1.3
		c-2.4,0-4.4-2-4.4-4.4c0-2.4,2-4.4,4.4-4.4c1.2,0,2.4,0.5,3.2,1.3c0.3,0.3,0.3,0.7,0,0.9c-0.3,0.3-0.7,0.3-0.9,0
		c-0.5-0.6-1.3-0.9-2.2-0.9c-1.8,0-3.1,1.4-3.1,3.1C27.9,54.6,29.1,55.9,30.9,55.9"/>
	<path fill="#FFFFFF" d="M35.8,49.9c-0.3,0-0.7-0.3-0.7-0.7c0-0.3,0.3-0.7,0.7-0.7h3.8c0.3,0,0.7,0.3,0.7,0.7c0,0.3-0.3,0.7-0.7,0.7
		h-1.2v6.6c0,0.3-0.3,0.7-0.7,0.7c-0.3,0-0.7-0.3-0.7-0.7v-6.6H35.8z"/>
</g>
</svg>
