<?xml version="1.0" encoding="utf-8"?>
<!-- Generator: Adobe Illustrator 19.2.1, SVG Export Plug-In . SVG Version: 6.00 Build 0)  -->
<!DOCTYPE svg PUBLIC "-//W3C//DTD SVG 1.1//EN" "http://www.w3.org/Graphics/SVG/1.1/DTD/svg11.dtd">
<svg version="1.1" id="Layer_1" xmlns="http://www.w3.org/2000/svg" xmlns:xlink="http://www.w3.org/1999/xlink" x="0px" y="0px"
	 viewBox="0 0 186 109.2" enable-background="new 0 0 186 109.2" xml:space="preserve">
<g>
	<path fill="#B96492" d="M166.2,51.8c0.1-0.7,0.1-1.5,0.1-2.2c0-8-3.3-15.4-9-22c0.4-7.4,1.5-14.7,3.4-21.8
		c-5.2,3.6-10,7.8-14.3,12.4C132.5,8.9,112.6,3,90.5,3C55.3,3,25.7,17.7,17.1,37.7c-1.9-0.5-3.9-1.2-5.8-2.5
		c-2.1-1.4-3.8-3.4-5.1-5.8c-1.3-2.3-2-5-2.4-7.7c-0.3-2.7-0.2-5.3,0.5-7.7c0.7-2.3,2.3-4.3,4.3-5.4c1-0.5,2-0.8,3-0.8
		c0.9,0,1.9,0.2,2.8,0.6c1.8,0.9,3.1,2.4,3.6,4.1c0,0.2,0.1,0.4,0.2,0.6c0,0.2,0.1,0.4,0.1,0.6c0,0.2,0,0.5,0,0.7c0,0.2,0,0.4,0,0.5
		c-0.1,0.8-0.4,1.6-0.7,2.2c-0.7,1.4-1.7,2.3-2.6,3c-0.9,0.6-1.8,1-2.4,1.1c-0.3,0.1-0.5,0.1-0.7,0.1c-0.2,0-0.2,0-0.2,0l0,0.3
		c0,0,0.1,0,0.3,0c0.2,0,0.4,0.1,0.8,0c0.7,0,1.7-0.1,2.9-0.7c0.6-0.3,1.2-0.6,1.8-1.1c0.6-0.5,1.2-1.1,1.8-1.9
		c0.5-0.8,1-1.7,1.2-2.7c0-0.3,0.1-0.6,0.1-0.9c0-0.2,0-0.5,0.1-0.7c0-0.7-0.1-1.2-0.2-1.8c-0.5-2.4-2.2-4.6-4.7-5.9
		c-1.2-0.7-2.6-1.1-4.2-1c-1.4,0-3,0.5-4.2,1.3c-2.6,1.6-4.4,4.2-5.1,7.1c-0.8,2.9-0.4,5.9,0.3,8.6c0.7,2.7,1.8,5.4,3.1,7.8
		c1.3,2.4,2.9,4.7,4.9,6.5c1.7,1.6,3.7,2.8,5.8,3.5c-1.1,3.2-1.7,6.4-1.7,9.8c0,18.7,18,34.8,43.9,42.2c0.8,7.5,0.7,15.2,0.7,15.2
		h3.9c0-5.2,1-9.7,2.3-13.5c0.8,0.2,1.6,0.4,2.5,0.5c0.6,6.7,0.5,12.9,0.5,12.9h3.9c0-4.5,0.7-8.5,1.8-11.9
		c5.3,0.7,10.7,1.1,16.3,1.1c0.9,0,1.7,0,2.6,0c0.4,5.9,0.3,10.9,0.3,10.9h3.9c0-4.2,0.6-7.9,1.6-11.2c0.7,0,1.4-0.1,2-0.2
		c0.4,6.1,0.4,11.3,0.4,11.3h3.9c0-4.6,0.7-8.6,1.8-12c15.7-2.2,29.6-7.3,40-14.4c3.1,0,6.2,0,9.3,0c5.4,0,11,0,15.7-2.7
		c4.6-2.6,7.6-7.5,9-12.6c1.4-5.1,1.5-10.4,1.6-15.7C177.5,52,171.8,52.6,166.2,51.8z"/>
</g>
</svg>
