<?xml version="1.0" encoding="utf-8"?>
<!-- Generator: Adobe Illustrator 19.2.1, SVG Export Plug-In . SVG Version: 6.00 Build 0)  -->
<!DOCTYPE svg PUBLIC "-//W3C//DTD SVG 1.1//EN" "http://www.w3.org/Graphics/SVG/1.1/DTD/svg11.dtd">
<svg version="1.1" id="Layer_1" xmlns="http://www.w3.org/2000/svg" xmlns:xlink="http://www.w3.org/1999/xlink" x="0px" y="0px"
	 viewBox="0 0 360 360" enable-background="new 0 0 360 360" xml:space="preserve">
<g id="Layer_2">
	
		<line fill="none" stroke="#E8E8E8" stroke-width="2" stroke-linecap="round" stroke-linejoin="round" stroke-miterlimit="10" x1="180" y1="36" x2="54" y2="252"/>
	
		<line fill="none" stroke="#E8E8E8" stroke-width="2" stroke-linecap="round" stroke-linejoin="round" stroke-miterlimit="10" x1="54" y1="108" x2="180" y2="324"/>
	
		<line fill="none" stroke="#00ABD3" stroke-width="2" stroke-linecap="round" stroke-linejoin="round" stroke-miterlimit="10" x1="54" y1="252" x2="180" y2="180"/>
	
		<line fill="none" stroke="#E8E8E8" stroke-width="2" stroke-linecap="round" stroke-linejoin="round" stroke-miterlimit="10" x1="180" y1="36" x2="243" y2="216"/>
	
		<line fill="none" stroke="#016F87" stroke-width="2" stroke-linecap="round" stroke-linejoin="round" stroke-miterlimit="10" x1="243" y1="144" x2="54" y2="108"/>
	
		<line fill="none" stroke="#E8E8E8" stroke-width="2" stroke-linecap="round" stroke-linejoin="round" stroke-miterlimit="10" x1="180" y1="324" x2="306" y2="108"/>
	
		<line fill="none" stroke="#5E5F5F" stroke-width="2" stroke-linecap="round" stroke-linejoin="round" stroke-miterlimit="10" x1="54" y1="252" x2="306" y2="252"/>
	
		<line fill="none" stroke="#E8E8E8" stroke-width="2" stroke-linecap="round" stroke-linejoin="round" stroke-miterlimit="10" x1="306" y1="108" x2="180" y2="180"/>
	
		<line fill="none" stroke="#E8E8E8" stroke-width="2" stroke-linecap="round" stroke-linejoin="round" stroke-miterlimit="10" x1="54" y1="108" x2="180" y2="108"/>
	
		<line fill="none" stroke="#E8E8E8" stroke-width="2" stroke-linecap="round" stroke-linejoin="round" stroke-miterlimit="10" x1="180" y1="180" x2="180" y2="252"/>
	
		<line fill="none" stroke="#E8E8E8" stroke-width="2" stroke-linecap="round" stroke-linejoin="round" stroke-miterlimit="10" x1="180" y1="324" x2="180" y2="252"/>
	
		<line fill="none" stroke="#E8E8E8" stroke-width="2" stroke-linecap="round" stroke-linejoin="round" stroke-miterlimit="10" x1="306" y1="252" x2="117" y2="144"/>
	
		<line fill="none" stroke="#8E8E8E" stroke-width="2" stroke-linecap="round" stroke-linejoin="round" stroke-miterlimit="10" x1="180" y1="108" x2="306" y2="252"/>
	
		<line fill="none" stroke="#E8E8E8" stroke-width="2" stroke-linecap="round" stroke-linejoin="round" stroke-miterlimit="10" x1="117" y1="144" x2="306" y2="108"/>
	<g>
		<path fill="#515251" stroke="#FFFFFF" stroke-miterlimit="10" d="M180,18.7c21.8,0,42.9,4.2,62.8,12.7
			c19.2,8.1,36.4,19.8,51.3,34.6c14.9,14.8,26.5,32,34.6,51.3c8.4,19.9,12.7,41,12.7,62.8s-4.2,42.9-12.7,62.8
			c-8.1,19.2-19.8,36.5-34.6,51.3c-14.8,14.9-32,26.5-51.3,34.6c-19.9,8.4-41,12.7-62.8,12.7s-42.9-4.2-62.8-12.7
			C98,320.7,80.7,309,65.9,294.2c-14.8-14.9-26.5-32-34.6-51.3c-8.4-20-12.6-41.1-12.6-62.9s4.2-42.9,12.7-62.8
			C39.5,98,51.2,80.7,66,65.9C80.8,51,98,39.4,117.3,31.3C137.1,23,158.2,18.7,180,18.7 M180,18C90.5,18,18,90.5,18,180
			s72.5,162,162,162s162-72.5,162-162S269.5,18,180,18L180,18z"/>
	</g>
</g>
</svg>
